<?xml version="1.0" encoding="iso-8859-1"?>
<!-- Uploaded to: SVG Repo, www.svgrepo.com, Generator: SVG Repo Mixer Tools -->
<svg fill="#000000" height="800px" width="800px" version="1.1" id="Layer_1" xmlns="http://www.w3.org/2000/svg" xmlns:xlink="http://www.w3.org/1999/xlink" 
	 viewBox="0 0 512.032 512.032" xml:space="preserve">
<g>
	<g>
		<g>
			<path d="M394.678,255.784c6.272,0,12.416,0.576,18.453,1.365c3.264,0.469,6.613-0.683,8.939-3.029l65.472-65.472
				c2.88-2.88,3.861-7.125,2.56-10.965s-4.672-6.613-8.704-7.147l-154.496-20.48L254.88,5.672c-3.605-7.232-15.488-7.232-19.093,0
				l-72.021,144.384L9.27,170.536c-4.011,0.533-7.403,3.307-8.704,7.147s-0.32,8.085,2.56,10.965l113.301,113.301L85.558,456.339
				c-0.811,4.011,0.747,8.085,3.989,10.581c1.877,1.451,4.181,2.197,6.464,2.197c1.621,0,3.264-0.384,4.779-1.131l146.859-73.429
				c1.216-0.213,2.411-0.619,3.52-1.259c3.093-1.771,5.099-4.971,5.355-8.512C261.515,312.446,322.208,255.784,394.678,255.784z"/>
			<path d="M394.699,277.096c-64.704,0-117.333,52.629-117.333,117.333c0,32.32,13.141,61.632,34.347,82.88
				c0.043,0.043,0.043,0.107,0.085,0.149c0.213,0.213,0.491,0.363,0.725,0.597c5.12,5.035,10.688,9.643,16.661,13.675
				c0.661,0.448,1.365,0.811,2.048,1.237c5.696,3.691,11.669,6.955,17.984,9.621c0.725,0.299,1.472,0.512,2.219,0.811
				c6.4,2.539,13.013,4.629,19.904,6.016c0.405,0.085,0.832,0.107,1.237,0.192c7.147,1.387,14.528,2.176,22.101,2.176
				s14.955-0.789,22.144-2.155c0.405-0.085,0.832-0.107,1.237-0.192c6.891-1.408,13.504-3.477,19.904-6.037
				c0.725-0.299,1.493-0.512,2.219-0.811c6.315-2.667,12.288-5.931,17.984-9.621c0.683-0.427,1.387-0.789,2.048-1.237
				c5.973-4.032,11.52-8.64,16.661-13.675c0.213-0.213,0.491-0.363,0.725-0.597c0.043-0.043,0.043-0.107,0.085-0.149
				c21.227-21.248,34.347-50.56,34.347-82.88C512.032,329.725,459.403,277.096,394.699,277.096z M472.48,450.259
				c-9.856-16.917-24.768-29.952-42.389-37.568c10.923-9.771,17.92-23.808,17.92-39.573c0-29.397-23.936-53.333-53.333-53.333
				s-53.333,23.936-53.333,53.333c0,15.765,6.997,29.803,17.92,39.573c-17.621,7.616-32.533,20.651-42.389,37.568
				c-11.328-15.765-18.197-34.944-18.197-55.808c0-52.928,43.072-96,96-96s96,43.072,96,96
				C490.678,415.315,483.808,434.493,472.48,450.259z"/>
		</g>
	</g>
</g>
</svg>